<?xml version="1.0" encoding="utf-8"?>
<!-- Generator: Adobe Illustrator 23.0.0, SVG Export Plug-In . SVG Version: 6.00 Build 0)  -->
<svg version="1.1" id="Layer_1" xmlns="http://www.w3.org/2000/svg" xmlns:xlink="http://www.w3.org/1999/xlink" x="0px" y="0px"
	 viewBox="0 0 87.9 30" style="enable-background:new 0 0 87.9 30;" xml:space="preserve">
<style type="text/css">
	.st0{fill:url(#SVGID_1_);}
</style>
<g>
	<path d="M55.5,20.3h-2v9.6h2V20.3z M32.3,20.5c0-0.8,0.8-1.3,2-1.3c1,0,2.3,0.3,3.7,1.2l0.9-1.9c-1.2-0.8-2.8-1.3-4.4-1.3
		c-2.7,0-4.6,1.3-4.6,3.5c0,4.5,6.8,2.9,6.8,5.7c0,1-0.9,1.5-2.4,1.5c-1.3,0-3-0.6-4.3-1.8l-0.9,1.8c1.3,1.2,3.2,2,5.1,2
		c2.8,0,4.7-1.4,4.7-3.6C39.1,21.8,32.3,23.3,32.3,20.5 M48.6,29.9h2.1V24c0-2.3-1.3-3.7-3.6-3.7c-1.6,0-2.9,0.6-3.5,1.9v-5.6h-2.1
		v13.3h2.1v-4.7c0-1.7,1-3,2.7-3c1.4,0,2.3,0.9,2.3,2.3L48.6,29.9L48.6,29.9z M55.6,17.6c0-0.7-0.5-1.3-1.2-1.3s-1.2,0.5-1.2,1.3
		c0,0.7,0.5,1.2,1.2,1.2C55.1,18.9,55.6,18.3,55.6,17.6 M67.2,26.8v-4.6H70v-1.5h-2.8v-2.6h-2v2.6h-4.3v-1.1c0-0.9,0.6-1.3,1.3-1.3
		c0.4,0,0.9,0.2,1.3,0.4l0.8-1.6c-0.6-0.4-1.4-0.7-2.2-0.7c-1.7,0-3.3,1.1-3.3,3.3v0.9h-1.3v1.5h1.3v7.7h2v-7.7h4.3v5
		c0,2,1.2,2.8,2.7,2.8c0.8,0,1.6-0.3,2.4-0.7l-0.5-1.6c-0.6,0.3-1,0.4-1.4,0.4C67.6,28.1,67.2,27.8,67.2,26.8 M78.6,24.4h-5.5
		c0.2-1.5,1.3-2.5,2.8-2.5C77.5,21.9,78.6,22.9,78.6,24.4 M80.4,25.9c0.3-3.5-1.1-5.6-4.5-5.6c-2.8,0-4.8,2-4.8,4.9S73,30,76,30
		c1.7,0,3-0.6,3.9-1.6l-1.1-1.2c-0.7,0.7-1.7,1.1-2.7,1.1c-1.5,0-2.6-0.9-3-2.4H80.4z M87.9,22.3v-2c-1.5,0-2.7,0.7-3.3,2v-1.9h-2.1
		V30h2.1v-5C84.8,23.3,86,22.1,87.9,22.3"/>
</g>
<linearGradient id="SVGID_1_" gradientUnits="userSpaceOnUse" x1="0" y1="17" x2="23.5" y2="17" gradientTransform="matrix(1 0 0 -1 0 32)">
	<stop  offset="0" style="stop-color:#BD529E"/>
	<stop  offset="1" style="stop-color:#FB1C57"/>
</linearGradient>
<path class="st0" d="M3.8,22.6h14.7c0,4.1-3.3,7.4-7.3,7.4C7.1,30,3.8,26.7,3.8,22.6z M16.8,7.8v7l6.7-7H16.8z M13.5,7.8H8.9v12.7
	h4.6V7.8z M6.9,0H0v6.9h6.9V0z M5.9,12.1c0-1.4-1.1-2.5-2.5-2.5s-2.5,1.1-2.5,2.5s1.1,2.5,2.5,2.5S5.9,13.5,5.9,12.1z"/>
</svg>
